# MagicaVoxel @ Ephtracy

# group
g log

# material
mtllib log.mtl
usemtl palette

# normals
vn -1 0 0
vn 1 0 0
vn 0 0 1
vn 0 0 -1
vn 0 -1 0
vn 0 1 0

# texcoords
vt 0.279297 0.5
vt 0.310547 0.5
vt 0.556641 0.5

# verts
v -20 0 8
v -20 0 6
v -20 0 -6
v -20 0 -8
v -20 1 8
v -20 1 7
v -20 1 -7
v -20 1 -8
v -20 2 7
v -20 2 6
v -20 2 -6
v -20 2 -7
v -20 4 -0
v -20 4 -1
v -20 4 -2
v -20 4 -3
v -20 5 -0
v -20 5 -1
v -20 5 -2
v -20 5 -3
v -19 1 -5
v -19 1 -6
v -19 2 6
v -19 2 5
v -19 2 -6
v -19 3 6
v -19 3 5
v -19 3 3
v -19 3 -3
v -19 3 -5
v -19 3 -6
v -19 4 5
v -19 4 3
v -19 4 -3
v -19 4 -5
v -18 4 1
v -18 4 -0
v -18 4 -1
v -18 4 -2
v -18 5 1
v -18 5 -0
v -18 5 -1
v -18 5 -2
v -17 4 2
v -17 4 1
v -17 5 2
v -17 5 1
v -16 4 3
v -16 4 2
v -16 5 3
v -16 5 2
v 16 4 -3
v 16 4 -4
v 16 5 -3
v 16 5 -4
v 16 8 -5
v 16 8 -6
v 16 9 -5
v 16 9 -6
v 17 4 -4
v 17 4 -5
v 17 5 -4
v 17 6 -5
v 17 6 -6
v 17 7 -4
v 17 7 -6
v 18 7 -5
v 18 7 -6
v 18 8 -5
v 18 8 -6
v 18 9 -5
v 18 9 -6
v 18 10 -5
v 18 10 -6
v 16 4 2
v 16 4 1
v 16 5 2
v 16 5 1
v 17 4 3
v 17 4 2
v 17 5 3
v 17 5 2
v 18 1 -5
v 18 1 -6
v 18 2 6
v 18 2 5
v 18 2 -6
v 18 3 6
v 18 3 5
v 18 3 -3
v 18 3 -5
v 18 3 -6
v 18 4 -0
v 18 4 -3
v 18 5 -0
v 18 5 -4
v 18 6 -5
v 18 7 -4
v 18 7 -5
v 19 3 4
v 19 3 3
v 19 4 4
v 19 4 3
v 19 6 -5
v 19 6 -6
v 19 8 -5
v 19 8 -6
v 19 10 -5
v 19 10 -6
v 20 0 8
v 20 0 7
v 20 0 6
v 20 0 -6
v 20 0 -7
v 20 0 -8
v 20 1 8
v 20 1 7
v 20 1 -7
v 20 1 -8
v 20 2 7
v 20 2 6
v 20 2 -6
v 20 2 -7
v 20 3 5
v 20 3 4
v 20 4 5
v 20 4 4
v 20 4 1
v 20 4 -0
v 20 5 1
v 20 5 -0
v -20 0 8
v -20 1 8
v 11 0 8
v 11 1 8
v 20 0 8
v 20 1 8
v -20 1 7
v -20 2 7
v -16 1 7
v -16 2 7
v -10 1 7
v -10 2 7
v 11 1 7
v 20 1 7
v 20 2 7
v -19 2 6
v -19 3 6
v -18 2 6
v -18 3 6
v -16 2 6
v -10 2 6
v -10 3 6
v -7 2 6
v -7 3 6
v 18 2 6
v 18 3 6
v -19 3 5
v -19 4 5
v -18 3 5
v -10 3 5
v -7 3 5
v 18 3 5
v 20 3 5
v 20 4 5
v -16 4 3
v -16 5 3
v -14 4 3
v -14 5 3
v 17 4 3
v 17 5 3
v -17 4 2
v -17 5 2
v -16 4 2
v -16 5 2
v -18 4 1
v -18 5 1
v -17 4 1
v -17 5 1
v 16 4 1
v 16 5 1
v 17 4 1
v 17 5 1
v 20 4 1
v 20 5 1
v -20 4 -0
v -20 5 -0
v -18 4 -0
v -18 5 -0
v -20 4 -2
v -20 5 -2
v -18 4 -2
v -18 5 -2
v -19 3 -3
v -19 4 -3
v 9 3 -3
v 9 4 -3
v 16 3 -3
v 16 4 -3
v 18 3 -3
v 18 4 -3
v 17 5 -4
v 17 7 -4
v 18 5 -4
v 18 7 -4
v -19 1 -5
v -19 3 -5
v -16 1 -5
v -16 3 -5
v 2 1 -5
v 2 3 -5
v 16 8 -5
v 16 9 -5
v 18 1 -5
v 18 3 -5
v 18 6 -5
v 18 7 -5
v 18 8 -5
v 18 9 -5
v 18 10 -5
v 19 6 -5
v 19 8 -5
v 19 10 -5
v -20 0 -6
v -20 2 -6
v -19 1 -6
v -19 2 -6
v -16 1 -6
v 2 1 -6
v 18 1 -6
v 18 2 -6
v 20 0 -6
v 20 2 -6
v -20 0 6
v -20 2 6
v -19 2 6
v -18 2 6
v -16 1 6
v -16 2 6
v -10 1 6
v -10 2 6
v -7 2 6
v 18 2 6
v 20 0 6
v 20 2 6
v -19 2 5
v -19 3 5
v -18 2 5
v -18 3 5
v -10 2 5
v -10 3 5
v -7 2 5
v -7 3 5
v 18 2 5
v 18 3 5
v 19 3 4
v 19 4 4
v 20 3 4
v 20 4 4
v -19 3 3
v -19 4 3
v -16 4 3
v -14 4 3
v 17 4 3
v 19 3 3
v 19 4 3
v 16 4 2
v 16 5 2
v 17 4 2
v 17 5 2
v 18 4 -0
v 18 5 -0
v 20 4 -0
v 20 5 -0
v -20 4 -1
v -20 5 -1
v -18 4 -1
v -18 5 -1
v -20 4 -3
v -20 5 -3
v -19 4 -3
v 9 4 -3
v 16 4 -3
v 16 5 -3
v 16 4 -4
v 16 5 -4
v 17 4 -4
v 17 5 -4
v -19 3 -5
v -19 4 -5
v -16 3 -5
v 2 3 -5
v 17 4 -5
v 17 6 -5
v 18 3 -5
v 18 6 -5
v -19 2 -6
v -19 3 -6
v -16 2 -6
v -16 3 -6
v 2 2 -6
v 2 3 -6
v 8 2 -6
v 14 2 -6
v 16 8 -6
v 16 9 -6
v 17 6 -6
v 17 7 -6
v 18 2 -6
v 18 3 -6
v 18 7 -6
v 18 8 -6
v 18 9 -6
v 18 10 -6
v 19 6 -6
v 19 8 -6
v 19 10 -6
v -20 1 -7
v -20 2 -7
v 8 1 -7
v 8 2 -7
v 10 1 -7
v 14 1 -7
v 14 2 -7
v 20 1 -7
v 20 2 -7
v -20 0 -8
v -20 1 -8
v 10 0 -8
v 10 1 -8
v 20 0 -8
v 20 1 -8
v -20 0 8
v 11 0 8
v 20 0 8
v 11 0 7
v 20 0 7
v -20 0 6
v 20 0 6
v -20 0 -6
v 20 0 -6
v 10 0 -7
v 20 0 -7
v -20 0 -8
v 10 0 -8
v 20 0 -8
v -19 1 -5
v -16 1 -5
v 2 1 -5
v 18 1 -5
v -19 1 -6
v -16 1 -6
v 2 1 -6
v 18 1 -6
v -19 2 6
v -18 2 6
v -16 2 6
v -10 2 6
v -7 2 6
v 18 2 6
v -19 2 5
v -18 2 5
v -10 2 5
v -7 2 5
v 18 2 5
v -19 3 5
v -18 3 5
v -10 3 5
v -7 3 5
v 18 3 5
v 20 3 5
v 19 3 4
v 20 3 4
v -19 3 3
v 19 3 3
v -19 3 -3
v 9 3 -3
v 16 3 -3
v 18 3 -3
v 9 3 -4
v 16 3 -4
v -19 3 -5
v -16 3 -5
v 2 3 -5
v 18 3 -5
v -16 4 3
v -14 4 3
v 17 4 3
v -17 4 2
v -16 4 2
v -14 4 2
v 16 4 2
v 17 4 2
v -18 4 1
v -17 4 1
v -10 4 1
v -7 4 1
v 8 4 1
v 9 4 1
v 16 4 1
v 17 4 1
v 20 4 1
v -20 4 -0
v -18 4 -0
v -12 4 -0
v -10 4 -0
v -7 4 -0
v -4 4 -0
v 8 4 -0
v 9 4 -0
v 15 4 -0
v 17 4 -0
v 18 4 -0
v 20 4 -0
v -20 4 -1
v -18 4 -1
v -12 4 -1
v -10 4 -1
v -7 4 -1
v -4 4 -1
v 3 4 -1
v 9 4 -1
v 15 4 -1
v -20 4 -2
v -18 4 -2
v -10 4 -2
v -7 4 -2
v 3 4 -2
v 9 4 -2
v -20 4 -3
v -19 4 -3
v 9 4 -3
v 16 4 -3
v 18 4 -3
v 17 6 -5
v 18 6 -5
v 19 6 -5
v 17 6 -6
v 19 6 -6
v 16 8 -5
v 18 8 -5
v 16 8 -6
v 18 8 -6
v -20 1 8
v 11 1 8
v 20 1 8
v -20 1 7
v -16 1 7
v -10 1 7
v 11 1 7
v 20 1 7
v -20 1 -7
v 8 1 -7
v 10 1 -7
v 14 1 -7
v 20 1 -7
v -20 1 -8
v 10 1 -8
v 20 1 -8
v -20 2 7
v -16 2 7
v -10 2 7
v 20 2 7
v -20 2 6
v -19 2 6
v -18 2 6
v -16 2 6
v -10 2 6
v -7 2 6
v 18 2 6
v 20 2 6
v -20 2 -6
v -19 2 -6
v -16 2 -6
v 2 2 -6
v 8 2 -6
v 14 2 -6
v 18 2 -6
v 20 2 -6
v -20 2 -7
v 8 2 -7
v 14 2 -7
v 20 2 -7
v -19 3 6
v -18 3 6
v -10 3 6
v -7 3 6
v 18 3 6
v -19 3 5
v -18 3 5
v -10 3 5
v -7 3 5
v 18 3 5
v -19 3 -5
v -16 3 -5
v 2 3 -5
v 18 3 -5
v -19 3 -6
v -16 3 -6
v 2 3 -6
v 18 3 -6
v -19 4 5
v 20 4 5
v 19 4 4
v 20 4 4
v -19 4 3
v -16 4 3
v -14 4 3
v 17 4 3
v 19 4 3
v -19 4 -3
v 9 4 -3
v 16 4 -3
v 9 4 -4
v 16 4 -4
v 17 4 -4
v -19 4 -5
v 17 4 -5
v -16 5 3
v -14 5 3
v 17 5 3
v -17 5 2
v -16 5 2
v -14 5 2
v 16 5 2
v 17 5 2
v -18 5 1
v -17 5 1
v -10 5 1
v -7 5 1
v 8 5 1
v 9 5 1
v 16 5 1
v 17 5 1
v 20 5 1
v -20 5 -0
v -18 5 -0
v -12 5 -0
v -10 5 -0
v -7 5 -0
v -4 5 -0
v 8 5 -0
v 9 5 -0
v 15 5 -0
v 17 5 -0
v 18 5 -0
v 20 5 -0
v -20 5 -1
v -18 5 -1
v -12 5 -1
v -10 5 -1
v -7 5 -1
v -4 5 -1
v 3 5 -1
v 9 5 -1
v 15 5 -1
v -20 5 -2
v -18 5 -2
v -10 5 -2
v -7 5 -2
v 3 5 -2
v 9 5 -2
v -20 5 -3
v 16 5 -3
v 16 5 -4
v 17 5 -4
v 18 5 -4
v 17 7 -4
v 18 7 -4
v 18 7 -5
v 17 7 -6
v 18 7 -6
v 16 9 -5
v 18 9 -5
v 16 9 -6
v 18 9 -6
v 18 10 -5
v 19 10 -5
v 18 10 -6
v 19 10 -6

# faces
f 5/1/1 2/1/1 1/1/1
f 6/1/1 2/1/1 5/1/1
f 7/1/1 4/1/1 3/1/1
f 8/1/1 4/1/1 7/1/1
f 9/1/1 2/1/1 6/1/1
f 10/1/1 2/1/1 9/1/1
f 11/1/1 7/1/1 3/1/1
f 12/1/1 7/1/1 11/1/1
f 17/1/1 14/1/1 13/1/1
f 18/1/1 14/1/1 17/1/1
f 19/1/1 16/1/1 15/1/1
f 20/1/1 16/1/1 19/1/1
f 25/1/1 22/1/1 21/1/1
f 26/2/1 24/2/1 23/2/1
f 27/2/1 24/2/1 26/2/1
f 30/1/1 25/1/1 21/1/1
f 31/1/1 25/1/1 30/1/1
f 32/1/1 28/1/1 27/1/1
f 33/1/1 28/1/1 32/1/1
f 34/1/1 30/1/1 29/1/1
f 35/1/1 30/1/1 34/1/1
f 40/1/1 37/1/1 36/1/1
f 41/1/1 37/1/1 40/1/1
f 42/1/1 39/1/1 38/1/1
f 43/1/1 39/1/1 42/1/1
f 46/1/1 45/1/1 44/1/1
f 47/1/1 45/1/1 46/1/1
f 50/2/1 49/2/1 48/2/1
f 51/2/1 49/2/1 50/2/1
f 54/1/1 53/1/1 52/1/1
f 55/1/1 53/1/1 54/1/1
f 58/3/1 57/3/1 56/3/1
f 59/3/1 57/3/1 58/3/1
f 62/1/1 61/1/1 60/1/1
f 63/1/1 61/1/1 62/1/1
f 65/1/1 63/1/1 62/1/1
f 65/1/1 64/1/1 63/1/1
f 66/1/1 64/1/1 65/1/1
f 69/1/1 68/1/1 67/1/1
f 70/1/1 68/1/1 69/1/1
f 73/3/1 72/3/1 71/3/1
f 74/3/1 72/3/1 73/3/1
f 75/1/2 76/1/2 77/1/2
f 77/1/2 76/1/2 78/1/2
f 79/1/2 80/1/2 81/1/2
f 81/1/2 80/1/2 82/1/2
f 83/1/2 84/1/2 87/1/2
f 85/1/2 86/1/2 88/1/2
f 88/1/2 86/1/2 89/1/2
f 83/1/2 87/1/2 91/1/2
f 91/1/2 87/1/2 92/1/2
f 90/1/2 91/1/2 94/1/2
f 93/1/2 94/1/2 95/1/2
f 94/1/2 91/1/2 96/1/2
f 95/1/2 94/1/2 96/1/2
f 96/1/2 91/1/2 97/1/2
f 96/1/2 97/1/2 98/1/2
f 98/1/2 97/1/2 99/1/2
f 100/1/2 101/1/2 102/1/2
f 102/1/2 101/1/2 103/1/2
f 104/1/2 105/1/2 106/1/2
f 106/1/2 105/1/2 107/1/2
f 106/3/2 107/3/2 108/3/2
f 108/3/2 107/3/2 109/3/2
f 110/2/2 111/2/2 116/2/2
f 111/1/2 112/1/2 117/1/2
f 116/2/2 111/2/2 117/2/2
f 114/2/2 115/2/2 118/2/2
f 113/1/2 114/1/2 118/1/2
f 118/2/2 115/2/2 119/2/2
f 117/1/2 112/1/2 120/1/2
f 120/1/2 112/1/2 121/1/2
f 113/1/2 118/1/2 122/1/2
f 122/1/2 118/1/2 123/1/2
f 124/1/2 125/1/2 126/1/2
f 126/1/2 125/1/2 127/1/2
f 128/2/2 129/2/2 130/2/2
f 130/2/2 129/2/2 131/2/2
f 134/1/3 133/1/3 132/1/3
f 135/1/3 133/1/3 134/1/3
f 136/2/3 135/2/3 134/2/3
f 137/2/3 135/2/3 136/2/3
f 140/1/3 139/1/3 138/1/3
f 141/1/3 139/1/3 140/1/3
f 142/2/3 141/2/3 140/2/3
f 143/2/3 141/2/3 142/2/3
f 144/1/3 143/1/3 142/1/3
f 145/1/3 143/1/3 144/1/3
f 146/1/3 143/1/3 145/1/3
f 149/2/3 148/2/3 147/2/3
f 150/2/3 148/2/3 149/2/3
f 151/1/3 150/1/3 149/1/3
f 152/1/3 150/1/3 151/1/3
f 153/1/3 150/1/3 152/1/3
f 154/2/3 153/2/3 152/2/3
f 155/2/3 153/2/3 154/2/3
f 156/1/3 155/1/3 154/1/3
f 157/1/3 155/1/3 156/1/3
f 160/1/3 159/1/3 158/1/3
f 161/1/3 159/1/3 160/1/3
f 162/1/3 159/1/3 161/1/3
f 163/1/3 159/1/3 162/1/3
f 164/1/3 159/1/3 163/1/3
f 165/1/3 159/1/3 164/1/3
f 168/2/3 167/2/3 166/2/3
f 169/2/3 167/2/3 168/2/3
f 170/1/3 169/1/3 168/1/3
f 171/1/3 169/1/3 170/1/3
f 174/1/3 173/1/3 172/1/3
f 175/1/3 173/1/3 174/1/3
f 178/1/3 177/1/3 176/1/3
f 179/1/3 177/1/3 178/1/3
f 182/1/3 181/1/3 180/1/3
f 183/1/3 181/1/3 182/1/3
f 184/2/3 183/2/3 182/2/3
f 185/2/3 183/2/3 184/2/3
f 188/1/3 187/1/3 186/1/3
f 189/1/3 187/1/3 188/1/3
f 192/1/3 191/1/3 190/1/3
f 193/1/3 191/1/3 192/1/3
f 196/1/3 195/1/3 194/1/3
f 197/1/3 195/1/3 196/1/3
f 198/2/3 197/2/3 196/2/3
f 199/2/3 197/2/3 198/2/3
f 200/1/3 199/1/3 198/1/3
f 201/1/3 199/1/3 200/1/3
f 204/1/3 203/1/3 202/1/3
f 205/1/3 203/1/3 204/1/3
f 208/1/3 207/1/3 206/1/3
f 209/1/3 207/1/3 208/1/3
f 210/2/3 209/2/3 208/2/3
f 211/2/3 209/2/3 210/2/3
f 214/1/3 211/1/3 210/1/3
f 215/1/3 211/1/3 214/1/3
f 218/3/3 213/3/3 212/3/3
f 219/3/3 213/3/3 218/3/3
f 221/1/3 217/1/3 216/1/3
f 221/1/3 218/1/3 217/1/3
f 222/3/3 220/3/3 219/3/3
f 222/1/3 218/1/3 221/1/3
f 222/3/3 219/3/3 218/3/3
f 223/3/3 220/3/3 222/3/3
f 226/1/3 225/1/3 224/1/3
f 227/1/3 225/1/3 226/1/3
f 228/1/3 226/1/3 224/1/3
f 229/1/3 228/1/3 224/1/3
f 230/1/3 229/1/3 224/1/3
f 232/1/3 230/1/3 224/1/3
f 232/1/3 231/1/3 230/1/3
f 233/1/3 231/1/3 232/1/3
f 234/1/4 235/1/4 236/1/4
f 234/1/4 236/1/4 237/1/4
f 234/1/4 237/1/4 238/1/4
f 238/1/4 237/1/4 239/1/4
f 234/1/4 238/1/4 240/1/4
f 238/2/4 239/2/4 240/2/4
f 240/2/4 239/2/4 241/2/4
f 240/1/4 241/1/4 242/1/4
f 240/1/4 242/1/4 243/1/4
f 234/1/4 240/1/4 244/1/4
f 240/1/4 243/1/4 244/1/4
f 244/1/4 243/1/4 245/1/4
f 246/2/4 247/2/4 248/2/4
f 248/2/4 247/2/4 249/2/4
f 248/1/4 249/1/4 250/1/4
f 250/1/4 249/1/4 251/1/4
f 250/2/4 251/2/4 252/2/4
f 252/2/4 251/2/4 253/2/4
f 252/1/4 253/1/4 254/1/4
f 254/1/4 253/1/4 255/1/4
f 256/1/4 257/1/4 258/1/4
f 258/1/4 257/1/4 259/1/4
f 260/1/4 261/1/4 262/1/4
f 260/1/4 262/1/4 263/1/4
f 260/1/4 263/1/4 264/1/4
f 260/1/4 264/1/4 265/1/4
f 265/1/4 264/1/4 266/1/4
f 267/1/4 268/1/4 269/1/4
f 269/1/4 268/1/4 270/1/4
f 271/2/4 272/2/4 273/2/4
f 273/2/4 272/2/4 274/2/4
f 275/1/4 276/1/4 277/1/4
f 277/1/4 276/1/4 278/1/4
f 279/1/4 280/1/4 281/1/4
f 281/1/4 280/1/4 282/1/4
f 282/1/4 280/1/4 283/1/4
f 283/1/4 280/1/4 284/1/4
f 285/1/4 286/1/4 287/1/4
f 287/1/4 286/1/4 288/1/4
f 289/1/4 290/1/4 291/1/4
f 291/1/4 290/1/4 292/1/4
f 292/1/4 290/1/4 293/1/4
f 292/1/4 293/1/4 295/1/4
f 293/1/4 294/1/4 295/1/4
f 295/1/4 294/1/4 296/1/4
f 297/1/4 298/1/4 299/1/4
f 299/1/4 298/1/4 300/1/4
f 299/2/4 300/2/4 301/2/4
f 301/2/4 300/2/4 302/2/4
f 301/1/4 302/1/4 303/1/4
f 303/1/4 302/1/4 304/1/4
f 304/1/4 302/1/4 309/1/4
f 309/1/4 302/1/4 310/1/4
f 307/1/4 308/1/4 311/1/4
f 305/3/4 306/3/4 312/3/4
f 312/3/4 306/3/4 313/3/4
f 307/1/4 311/1/4 315/1/4
f 311/1/4 312/1/4 315/1/4
f 313/3/4 314/3/4 316/3/4
f 315/1/4 312/1/4 316/1/4
f 312/3/4 313/3/4 316/3/4
f 316/3/4 314/3/4 317/3/4
f 318/1/4 319/1/4 320/1/4
f 320/1/4 319/1/4 321/1/4
f 320/2/4 321/2/4 322/2/4
f 322/2/4 321/2/4 323/2/4
f 323/2/4 321/2/4 324/2/4
f 323/1/4 324/1/4 325/1/4
f 325/1/4 324/1/4 326/1/4
f 327/1/4 328/1/4 329/1/4
f 329/1/4 328/1/4 330/1/4
f 329/2/4 330/2/4 331/2/4
f 331/2/4 330/2/4 332/2/4
f 336/1/5 334/1/5 333/1/5
f 336/2/5 335/2/5 334/2/5
f 337/2/5 335/2/5 336/2/5
f 338/1/5 336/1/5 333/1/5
f 338/1/5 337/1/5 336/1/5
f 339/1/5 337/1/5 338/1/5
f 342/1/5 341/1/5 340/1/5
f 343/1/5 341/1/5 342/1/5
f 344/1/5 342/1/5 340/1/5
f 345/2/5 343/2/5 342/2/5
f 345/1/5 342/1/5 344/1/5
f 346/2/5 343/2/5 345/2/5
f 351/1/5 348/1/5 347/1/5
f 352/2/5 349/2/5 348/2/5
f 352/1/5 348/1/5 351/1/5
f 353/1/5 350/1/5 349/1/5
f 353/2/5 349/2/5 352/2/5
f 354/1/5 350/1/5 353/1/5
f 361/2/5 356/2/5 355/2/5
f 362/1/5 357/1/5 356/1/5
f 362/2/5 356/2/5 361/2/5
f 362/1/5 358/1/5 357/1/5
f 363/2/5 359/2/5 358/2/5
f 363/1/5 358/1/5 362/1/5
f 364/1/5 360/1/5 359/1/5
f 364/2/5 359/2/5 363/2/5
f 365/1/5 360/1/5 364/1/5
f 372/1/5 367/1/5 366/1/5
f 372/1/5 371/1/5 370/1/5
f 372/1/5 370/1/5 369/1/5
f 372/1/5 369/1/5 368/1/5
f 372/1/5 368/1/5 367/1/5
f 373/1/5 371/1/5 372/1/5
f 374/1/5 372/1/5 366/1/5
f 375/1/5 372/1/5 374/1/5
f 380/1/5 377/1/5 376/1/5
f 380/2/5 378/2/5 377/2/5
f 381/1/5 379/1/5 378/1/5
f 381/2/5 378/2/5 380/2/5
f 382/1/5 380/1/5 376/1/5
f 382/1/5 381/1/5 380/1/5
f 383/1/5 381/1/5 382/1/5
f 384/1/5 381/1/5 383/1/5
f 385/1/5 379/1/5 381/1/5
f 385/1/5 381/1/5 384/1/5
f 390/2/5 387/2/5 386/2/5
f 391/1/5 388/1/5 387/1/5
f 391/2/5 387/2/5 390/2/5
f 392/1/5 388/1/5 391/1/5
f 393/1/5 388/1/5 392/1/5
f 395/1/5 390/1/5 389/1/5
f 395/1/5 391/1/5 390/1/5
f 395/1/5 392/1/5 391/1/5
f 396/1/5 392/1/5 395/1/5
f 397/1/5 392/1/5 396/1/5
f 398/1/5 392/1/5 397/1/5
f 399/1/5 392/1/5 398/1/5
f 400/1/5 392/1/5 399/1/5
f 404/1/5 395/1/5 394/1/5
f 404/1/5 396/1/5 395/1/5
f 405/1/5 396/1/5 404/1/5
f 406/2/5 397/2/5 396/2/5
f 406/1/5 396/1/5 405/1/5
f 407/1/5 398/1/5 397/1/5
f 407/2/5 397/2/5 406/2/5
f 408/1/5 398/1/5 407/1/5
f 409/2/5 399/2/5 398/2/5
f 409/1/5 398/1/5 408/1/5
f 410/1/5 401/1/5 400/1/5
f 410/2/5 399/2/5 409/2/5
f 410/1/5 400/1/5 399/1/5
f 411/1/5 401/1/5 410/1/5
f 412/2/5 402/2/5 401/2/5
f 412/1/5 401/1/5 411/1/5
f 413/2/5 402/2/5 412/2/5
f 414/2/5 402/2/5 413/2/5
f 415/1/5 405/1/5 404/1/5
f 415/1/5 404/1/5 403/1/5
f 416/1/5 405/1/5 415/1/5
f 417/2/5 406/2/5 405/2/5
f 417/1/5 405/1/5 416/1/5
f 418/1/5 407/1/5 406/1/5
f 418/2/5 406/2/5 417/2/5
f 419/2/5 408/2/5 407/2/5
f 419/1/5 407/1/5 418/1/5
f 420/1/5 409/1/5 408/1/5
f 420/2/5 408/2/5 419/2/5
f 420/1/5 410/1/5 409/1/5
f 421/1/5 410/1/5 420/1/5
f 422/2/5 411/2/5 410/2/5
f 422/1/5 410/1/5 421/1/5
f 423/1/5 413/1/5 412/1/5
f 423/2/5 411/2/5 422/2/5
f 423/1/5 412/1/5 411/1/5
f 425/1/5 417/1/5 416/1/5
f 425/1/5 418/1/5 417/1/5
f 426/2/5 419/2/5 418/2/5
f 426/1/5 418/1/5 425/1/5
f 427/1/5 421/1/5 420/1/5
f 427/2/5 419/2/5 426/2/5
f 427/1/5 420/1/5 419/1/5
f 428/2/5 422/2/5 421/2/5
f 428/1/5 421/1/5 427/1/5
f 429/1/5 423/1/5 422/1/5
f 429/2/5 422/2/5 428/2/5
f 430/1/5 425/1/5 424/1/5
f 430/1/5 426/1/5 425/1/5
f 430/1/5 429/1/5 428/1/5
f 430/1/5 428/1/5 427/1/5
f 430/1/5 427/1/5 426/1/5
f 431/1/5 429/1/5 430/1/5
f 432/1/5 423/1/5 429/1/5
f 432/1/5 429/1/5 431/1/5
f 433/1/5 413/1/5 423/1/5
f 433/1/5 423/1/5 432/1/5
f 434/1/5 413/1/5 433/1/5
f 438/1/5 436/1/5 435/1/5
f 438/1/5 437/1/5 436/1/5
f 439/1/5 437/1/5 438/1/5
f 442/3/5 441/3/5 440/3/5
f 443/3/5 441/3/5 442/3/5
f 444/1/6 445/1/6 447/1/6
f 447/1/6 445/1/6 448/1/6
f 448/1/6 445/1/6 449/1/6
f 445/2/6 446/2/6 450/2/6
f 449/1/6 445/1/6 450/1/6
f 450/2/6 446/2/6 451/2/6
f 452/1/6 453/1/6 457/1/6
f 453/1/6 454/1/6 457/1/6
f 455/2/6 456/2/6 458/2/6
f 457/1/6 454/1/6 458/1/6
f 454/2/6 455/2/6 458/2/6
f 458/2/6 456/2/6 459/2/6
f 460/1/6 461/1/6 464/1/6
f 464/1/6 461/1/6 465/1/6
f 465/1/6 461/1/6 466/1/6
f 461/2/6 462/2/6 467/2/6
f 466/1/6 461/1/6 467/1/6
f 462/1/6 463/1/6 468/1/6
f 467/2/6 462/2/6 468/2/6
f 468/1/6 463/1/6 469/1/6
f 469/1/6 463/1/6 470/1/6
f 470/1/6 463/1/6 471/1/6
f 472/1/6 473/1/6 480/1/6
f 473/1/6 474/1/6 480/1/6
f 474/1/6 475/1/6 480/1/6
f 475/1/6 476/1/6 480/1/6
f 476/2/6 477/2/6 481/2/6
f 480/1/6 476/1/6 481/1/6
f 478/1/6 479/1/6 482/1/6
f 481/2/6 477/2/6 482/2/6
f 477/1/6 478/1/6 482/1/6
f 482/1/6 479/1/6 483/1/6
f 484/2/6 485/2/6 489/2/6
f 485/1/6 486/1/6 490/1/6
f 489/2/6 485/2/6 490/2/6
f 486/2/6 487/2/6 491/2/6
f 490/1/6 486/1/6 491/1/6
f 487/1/6 488/1/6 492/1/6
f 491/2/6 487/2/6 492/2/6
f 492/1/6 488/1/6 493/1/6
f 494/1/6 495/1/6 498/1/6
f 495/2/6 496/2/6 499/2/6
f 498/1/6 495/1/6 499/1/6
f 496/1/6 497/1/6 500/1/6
f 499/2/6 496/2/6 500/2/6
f 500/1/6 497/1/6 501/1/6
f 502/1/6 503/1/6 504/1/6
f 504/1/6 503/1/6 505/1/6
f 502/1/6 504/1/6 506/1/6
f 506/1/6 504/1/6 507/1/6
f 507/1/6 504/1/6 508/1/6
f 508/1/6 504/1/6 509/1/6
f 509/1/6 504/1/6 510/1/6
f 511/1/6 512/1/6 514/1/6
f 512/2/6 513/2/6 514/2/6
f 514/2/6 513/2/6 515/2/6
f 511/1/6 514/1/6 517/1/6
f 515/1/6 516/1/6 517/1/6
f 514/1/6 515/1/6 517/1/6
f 517/1/6 516/1/6 518/1/6
f 519/2/6 520/2/6 523/2/6
f 520/1/6 521/1/6 524/1/6
f 523/2/6 520/2/6 524/2/6
f 524/1/6 521/1/6 525/1/6
f 525/1/6 521/1/6 526/1/6
f 522/1/6 523/1/6 528/1/6
f 523/1/6 524/1/6 528/1/6
f 524/1/6 525/1/6 528/1/6
f 528/1/6 525/1/6 529/1/6
f 529/1/6 525/1/6 530/1/6
f 530/1/6 525/1/6 531/1/6
f 531/1/6 525/1/6 532/1/6
f 532/1/6 525/1/6 533/1/6
f 527/1/6 528/1/6 537/1/6
f 528/1/6 529/1/6 537/1/6
f 537/1/6 529/1/6 538/1/6
f 529/2/6 530/2/6 539/2/6
f 538/1/6 529/1/6 539/1/6
f 530/1/6 531/1/6 540/1/6
f 539/2/6 530/2/6 540/2/6
f 540/1/6 531/1/6 541/1/6
f 531/2/6 532/2/6 542/2/6
f 541/1/6 531/1/6 542/1/6
f 533/1/6 534/1/6 543/1/6
f 542/2/6 532/2/6 543/2/6
f 532/1/6 533/1/6 543/1/6
f 543/1/6 534/1/6 544/1/6
f 534/2/6 535/2/6 545/2/6
f 544/1/6 534/1/6 545/1/6
f 545/2/6 535/2/6 546/2/6
f 546/2/6 535/2/6 547/2/6
f 537/1/6 538/1/6 548/1/6
f 536/1/6 537/1/6 548/1/6
f 548/1/6 538/1/6 549/1/6
f 538/2/6 539/2/6 550/2/6
f 549/1/6 538/1/6 550/1/6
f 539/1/6 540/1/6 551/1/6
f 550/2/6 539/2/6 551/2/6
f 540/2/6 541/2/6 552/2/6
f 551/1/6 540/1/6 552/1/6
f 541/1/6 542/1/6 553/1/6
f 552/2/6 541/2/6 553/2/6
f 542/1/6 543/1/6 553/1/6
f 553/1/6 543/1/6 554/1/6
f 543/2/6 544/2/6 555/2/6
f 554/1/6 543/1/6 555/1/6
f 545/1/6 546/1/6 556/1/6
f 555/2/6 544/2/6 556/2/6
f 544/1/6 545/1/6 556/1/6
f 549/1/6 550/1/6 558/1/6
f 550/1/6 551/1/6 558/1/6
f 551/2/6 552/2/6 559/2/6
f 558/1/6 551/1/6 559/1/6
f 553/1/6 554/1/6 560/1/6
f 559/2/6 552/2/6 560/2/6
f 552/1/6 553/1/6 560/1/6
f 554/2/6 555/2/6 561/2/6
f 560/1/6 554/1/6 561/1/6
f 555/1/6 556/1/6 562/1/6
f 561/2/6 555/2/6 562/2/6
f 557/1/6 558/1/6 563/1/6
f 558/1/6 559/1/6 563/1/6
f 561/1/6 562/1/6 563/1/6
f 560/1/6 561/1/6 563/1/6
f 559/1/6 560/1/6 563/1/6
f 562/1/6 556/1/6 564/1/6
f 563/1/6 562/1/6 564/1/6
f 556/1/6 546/1/6 564/1/6
f 564/1/6 546/1/6 565/1/6
f 565/1/6 546/1/6 566/1/6
f 566/1/6 546/1/6 567/1/6
f 568/1/6 569/1/6 570/1/6
f 568/1/6 570/1/6 571/1/6
f 571/1/6 570/1/6 572/1/6
f 573/3/6 574/3/6 575/3/6
f 575/3/6 574/3/6 576/3/6
f 577/3/6 578/3/6 579/3/6
f 579/3/6 578/3/6 580/3/6
